<svg width="1330" height="558" viewBox="0 0 1330 558" fill="none" xmlns="http://www.w3.org/2000/svg">
<path d="M124.47 -79.2858C124.441 -79.2115 124.438 -79.1304 124.461 -79.0535C124.484 -78.9765 124.531 -78.9073 124.597 -78.8553C124.663 -78.8032 124.744 -78.7708 124.829 -78.7625C124.914 -78.7541 124.999 -78.7701 125.073 -78.8084C315.631 -168.484 541.938 -202.903 753.318 -157.703C938.365 -118.121 1100.5 -16.5616 1226.28 116.58C1264.95 157.512 1299.39 198.369 1329.59 239.153C1330.06 239.789 1330.02 239.822 1329.47 239.252C1235.47 141.34 1129.13 59.3577 1010.46 -6.69474C904.429 -65.6808 782.776 -107.856 657.69 -118.613C424.765 -138.637 223.762 -31.6876 71.7752 118.412C69.4862 120.687 67.5443 124.715 67.205 128.143C55.3162 247.353 108.151 358.82 184.327 453.102C193.852 464.911 201.695 475.091 207.855 483.643C208.312 484.276 208.176 484.417 207.446 484.068C98.5497 433.006 0.109508 357.26 -81.7337 272.208C-81.7915 272.146 -81.8624 272.097 -81.9416 272.063C-82.0208 272.029 -82.1066 272.01 -82.1933 272.009C-82.28 272.007 -82.3657 272.023 -82.4447 272.054C-82.5237 272.086 -82.5942 272.133 -82.6517 272.192C-166.811 352.973 -237.141 449.974 -275.133 557.407C-275.169 557.591 -275.283 557.753 -275.449 557.857C-275.615 557.96 -275.821 557.997 -276.02 557.96C-276.219 557.922 -276.396 557.813 -276.511 557.657C-276.626 557.5 -276.671 557.308 -276.634 557.124C-271.115 421.697 -233.648 287.232 -157.307 172.302C-157.076 171.955 -156.924 171.568 -156.857 171.162C-156.791 170.757 -156.812 170.341 -156.921 169.94L-178.932 87.5664C-179.053 87.0952 -179.01 86.6029 -178.808 86.1602C-178.607 85.7175 -178.257 85.347 -177.81 85.1019C-129.626 58.803 -81.5794 32.4768 -33.6695 6.12347C-29.6208 3.89188 -26.126 1.06724 -23.185 -2.35046C38.5156 -73.8773 101.037 -147.152 169.93 -212.774C170.078 -212.917 170.268 -213.016 170.478 -213.061C170.687 -213.105 170.908 -213.093 171.113 -213.025C171.318 -212.957 171.498 -212.836 171.634 -212.677C171.769 -212.518 171.854 -212.328 171.877 -212.128C171.925 -211.768 171.79 -211.166 171.47 -210.321C155.386 -166.679 139.719 -123.001 124.47 -79.2858Z" fill="#EBAA28"/>
</svg>
