<svg width="1505" height="532" viewBox="0 0 1505 532" fill="none" xmlns="http://www.w3.org/2000/svg">
<g clip-path="url(#clip0_122_5419)">
<path d="M1039.77 515.667C869.525 612.048 674.874 672.575 512.794 771.054C392.019 844.435 301.196 961.853 241.523 1089.04C241.381 1089.34 241.177 1089.61 240.925 1089.82C240.673 1090.04 240.378 1090.2 240.059 1090.3C239.74 1090.39 239.405 1090.42 239.075 1090.38C238.745 1090.34 238.427 1090.23 238.142 1090.05C170.521 1049.6 109.735 1000.6 55.7832 943.058C55.4211 942.672 55.1893 942.181 55.1202 941.652C55.051 941.123 55.1478 940.582 55.3972 940.105C120.237 816.983 221.806 716.024 340.628 642.269C575.219 496.677 865.46 496.3 1098.06 346.206C1217.77 268.962 1324.55 170.314 1415.13 60.1672C1415.25 60.024 1415.42 59.925 1415.6 59.8852C1415.79 59.8455 1415.98 59.8671 1416.15 59.947C1416.32 60.0268 1416.46 60.1604 1416.55 60.3274C1416.64 60.4944 1416.67 60.6856 1416.64 60.8718C1394.74 176.89 1332.34 282.263 1248.43 364.505C1186.8 424.914 1117.38 471.727 1039.77 515.667Z" fill="#0D9DD9"/>
<path d="M1443.23 111.253C1434.6 183.926 1411.2 257.603 1378.27 322.856C1318.67 440.983 1229.03 528.123 1115.34 595.286C1067.83 623.355 1019.55 650.024 970.476 675.294C924.595 698.929 879.797 725.228 835.07 751.003C767.554 789.923 702.851 833.007 640.958 880.256C544.389 954.001 465.836 1054.82 437.459 1174.42C437.423 1174.58 437.355 1174.73 437.26 1174.86C437.165 1174.99 437.045 1175.1 436.906 1175.18C436.768 1175.26 436.614 1175.32 436.454 1175.34C436.294 1175.36 436.131 1175.35 435.975 1175.31C377.535 1158.49 321.492 1135.74 267.847 1107.07C267.342 1106.8 266.954 1106.36 266.758 1105.82C266.562 1105.29 266.572 1104.7 266.786 1104.17C309.924 995.46 388.966 901.6 478.168 827.724C527.262 787.045 586.842 754.004 644.71 726.003C759.621 670.401 878.295 623.486 993.374 568.202C1070.22 531.289 1148.7 487.032 1213.31 430.97C1311.48 345.753 1406.71 229.932 1439.9 101.447C1439.98 101.153 1440.15 100.893 1440.39 100.705C1440.63 100.518 1440.92 100.413 1441.23 100.408C1441.53 100.402 1441.83 100.496 1442.07 100.675C1442.32 100.854 1442.5 101.108 1442.58 101.398C1443.43 104.32 1443.65 107.605 1443.23 111.253Z" fill="#005CA5"/>
<path d="M1252.95 528.838C1364.12 438.378 1440.85 303.802 1460.1 161.403C1460.11 161.316 1460.16 161.236 1460.23 161.176C1460.29 161.115 1460.37 161.079 1460.46 161.072C1460.55 161.066 1460.63 161.09 1460.7 161.14C1460.76 161.19 1460.81 161.264 1460.83 161.348C1529.26 418.729 1473.57 686.683 1308.93 895.913C1284.33 927.199 1257.61 955.194 1226.46 980.99C1142.02 1050.93 1046.19 1112.98 945.16 1156.1C935.148 1160.37 919.817 1166.04 907.409 1169.82C762.161 1214 615.606 1218.61 467.742 1183.65C467.568 1183.61 467.404 1183.54 467.26 1183.44C467.115 1183.33 466.993 1183.2 466.9 1183.05C466.808 1182.89 466.747 1182.72 466.721 1182.54C466.696 1182.36 466.706 1182.18 466.752 1182C490.922 1089.44 540.636 1003.32 612.411 939.858C713.213 850.672 829.411 787.014 947.489 724.113C967.348 713.524 992.223 698.532 1014.95 686.367C1026.2 680.35 1035.2 675.346 1041.96 671.355C1119.31 625.626 1185.78 583.459 1252.95 528.838Z" fill="#005CA5"/>
</g>
<defs>
<clipPath id="clip0_122_5419">
<rect width="1621.42" height="766.271" fill="white" transform="translate(0 852.973) rotate(-31.74)"/>
</clipPath>
</defs>
</svg>
