<?xml version="1.0" encoding="UTF-8" standalone="no"?>
<!DOCTYPE svg PUBLIC "-//W3C//DTD SVG 1.1//EN" "http://www.w3.org/Graphics/SVG/1.1/DTD/svg11.dtd">
<svg xmlns="http://www.w3.org/2000/svg" version="1.1" viewBox="0 0 694 708">
<g stroke-width="2.00" fill="none" stroke-linecap="butt">
<path stroke="#f5d594" vector-effect="non-scaling-stroke" d="
  M 139.33 97.57
  Q 144.77 67.67 150.72 37.74
  Q 150.84 37.16 150.78 36.93
  A 0.46 0.46 0.0 0 0 149.96 36.77
  C 126.02 69.54 105.08 105.24 84.37 140.13
  Q 82.89 142.63 80.64 144.46
  Q 54.01 166.08 27.21 187.69
  A 1.01 1.00 -30.0 0 0 26.90 188.83
  L 40.47 223.25
  A 1.36 1.36 0.0 0 1 40.45 224.30
  C 16.34 278.95 8.98 339.68 14.52 398.85
  A 0.31 0.31 0.0 0 0 15.14 398.88
  C 24.26 349.86 46.98 303.37 76.19 263.07
  A 0.25 0.25 0.0 0 1 76.56 263.02
  C 114.34 294.90 158.26 321.71 204.97 337.15
  Q 205.44 337.31 205.11 336.94
  Q 200.66 331.94 193.90 325.13
  C 157.87 288.89 130.24 243.74 128.19 191.22
  C 128.13 189.71 128.68 187.84 129.47 186.71
  C 181.98 112.10 256.67 53.20 351.47 47.48
  C 402.38 44.41 453.71 55.20 499.72 74.26
  Q 576.97 106.28 642.08 161.35
  Q 642.46 161.67 642.12 161.30
  Q 620.40 137.53 593.56 114.45
  C 535.36 64.40 464.35 30.32 387.68 24.58
  C 300.10 18.03 211.08 46.99 139.60 97.74
  A 0.17 0.17 0.0 0 1 139.33 97.57"
/>
<path stroke="#f5d594" vector-effect="non-scaling-stroke" d="
  M 236.81 242.44
  Q 228.15 242.24 224.99 242.45
  A 0.53 0.53 0.0 0 0 224.49 242.98
  L 224.49 339.87
  A 0.63 0.63 0.0 0 0 225.12 340.50
  L 256.75 340.50
  A 0.50 0.50 0.0 0 0 257.25 340.00
  L 257.25 310.73
  A 0.38 0.38 0.0 0 1 257.62 310.35
  Q 294.58 309.93 331.58 310.02
  C 343.47 310.05 356.61 312.38 363.05 299.76
  Q 364.57 296.77 364.85 291.95
  Q 365.59 279.04 365.18 266.11
  C 364.67 250.03 358.78 242.87 342.16 242.97
  Q 277.78 243.36 236.81 242.44"
/>
<path stroke="#f5d594" vector-effect="non-scaling-stroke" d="
  M 451.45 279.11
  L 486.90 339.81
  A 1.39 1.38 -15.0 0 0 488.10 340.50
  L 525.92 340.50
  A 0.45 0.44 73.9 0 0 526.29 339.82
  L 466.49 242.69
  A 0.92 0.91 74.0 0 0 465.71 242.25
  L 432.54 242.25
  A 0.92 0.91 16.7 0 0 431.78 242.65
  Q 429.92 245.40 428.27 248.29
  Q 402.06 294.17 375.75 340.08
  A 0.28 0.28 0.0 0 0 376.00 340.50
  L 411.45 340.49
  A 1.56 1.56 0.0 0 0 412.77 339.76
  L 450.73 279.10
  A 0.42 0.42 0.0 0 1 451.45 279.11"
/>
<path stroke="#f5d594" vector-effect="non-scaling-stroke" d="
  M 567.20 283.22
  L 567.37 242.72
  A 0.47 0.47 0.0 0 0 566.90 242.25
  L 538.76 242.25
  A 0.63 0.63 0.0 0 0 538.13 242.84
  Q 537.75 249.21 537.97 264.76
  Q 538.23 282.60 537.87 339.98
  A 0.52 0.51 90.0 0 0 538.38 340.50
  L 566.75 340.50
  A 0.50 0.50 0.0 0 0 567.25 340.00
  L 567.25 310.87
  A 1.27 1.26 -19.6 0 1 567.72 309.89
  L 590.25 291.93
  A 0.56 0.56 0.0 0 1 591.05 292.03
  L 627.87 340.03
  A 1.17 1.14 70.7 0 0 628.78 340.48
  L 668.43 340.51
  Q 669.29 340.51 668.74 339.85
  L 618.47 279.09
  A 0.95 0.94 53.0 0 1 618.66 277.72
  L 668.25 243.04
  A 0.43 0.43 0.0 0 0 668.01 242.25
  L 627.08 242.25
  A 1.76 1.73 -61.8 0 0 626.09 242.56
  L 567.81 283.54
  Q 567.20 283.97 567.20 283.22"
/>
<path stroke="#86ceec" vector-effect="non-scaling-stroke" d="
  M 214.25 456.74
  C 293.20 457.37 375.37 478.57 456.75 481.73
  C 493.85 483.17 528.68 481.80 563.73 473.91
  C 611.45 463.17 656.62 439.53 689.78 403.25
  A 0.36 0.36 0.0 0 0 689.40 402.67
  C 633.21 421.83 573.80 433.37 514.50 434.50
  C 399.28 436.70 296.44 373.27 181.50 373.44
  C 123.28 373.53 65.21 387.03 15.29 416.42
  A 1.08 1.06 -21.2 0 0 14.78 417.55
  Q 24.53 465.83 47.15 509.53
  A 0.99 0.99 0.0 0 0 48.57 509.91
  C 97.55 477.95 155.42 456.27 214.25 456.74"
/>
<path stroke="#80aed2" vector-effect="non-scaling-stroke" d="
  M 618.82 487.60
  C 644.77 471.71 669.19 450.75 688.16 426.91
  Q 689.58 425.11 690.09 423.28
  A 0.58 0.58 0.0 0 0 689.13 422.71
  C 649.24 460.93 590.16 481.08 536.74 489.75
  C 501.59 495.45 464.11 493.93 428.82 490.17
  C 375.97 484.54 323.68 475.16 270.82 469.68
  C 244.20 466.92 215.87 465.57 189.58 469.22
  C 141.82 475.84 93.28 491.76 54.20 520.80
  A 0.96 0.96 0.0 0 0 53.94 522.06
  Q 73.01 554.91 98.52 583.04
  A 0.50 0.50 0.0 0 0 99.24 583.05
  C 135.48 546.92 185.37 528.43 235.71 523.47
  Q 284.10 518.71 332.74 520.22
  C 354.22 520.89 375.84 521.39 397.26 523.07
  Q 431.62 525.77 466.07 526.47
  C 521.03 527.59 571.85 516.37 618.82 487.60"
/>
<path stroke="#80aed2" vector-effect="non-scaling-stroke" d="
  M 683.15 448.36
  C 645.15 494.56 588.51 525.40 529.34 533.08
  C 493.60 537.71 460.83 538.08 423.43 537.33
  Q 418.53 537.23 410.58 536.73
  C 399.87 536.06 387.78 535.92 378.43 535.32
  C 322.85 531.73 267.77 528.82 212.55 538.32
  C 173.24 545.07 136.78 564.67 107.95 592.15
  A 0.56 0.55 -44.6 0 0 107.94 592.95
  Q 174.98 660.09 266.63 684.34
  C 271.85 685.72 278.52 687.07 283.00 687.75
  C 328.21 694.61 375.73 693.63 420.94 687.36
  C 437.62 685.05 453.21 680.99 468.77 675.30
  C 572.88 637.28 651.28 554.61 683.42 448.50
  A 0.16 0.15 -17.3 0 0 683.15 448.36"
/>
<path stroke="#f5d594" vector-effect="non-scaling-stroke" d="
  M 257.88 289.22
  C 279.74 289.29 301.57 289.65 323.43 289.40
  C 330.77 289.31 338.74 284.57 338.72 276.58
  C 338.71 270.80 333.98 265.69 328.57 264.29
  Q 326.35 263.71 319.87 263.62
  C 303.37 263.38 285.06 263.85 257.84 263.69
  A 0.62 0.61 -0.5 0 0 257.22 264.31
  L 257.32 288.66
  A 0.57 0.56 0.5 0 0 257.88 289.22"
/>
</g>
<path fill="#ffffff" d="
  M 0.00 0.00
  L 694.00 0.00
  L 694.00 708.00
  L 0.00 708.00
  L 0.00 0.00
  Z
  M 139.33 97.57
  Q 144.77 67.67 150.72 37.74
  Q 150.84 37.16 150.78 36.93
  A 0.46 0.46 0.0 0 0 149.96 36.77
  C 126.02 69.54 105.08 105.24 84.37 140.13
  Q 82.89 142.63 80.64 144.46
  Q 54.01 166.08 27.21 187.69
  A 1.01 1.00 -30.0 0 0 26.90 188.83
  L 40.47 223.25
  A 1.36 1.36 0.0 0 1 40.45 224.30
  C 16.34 278.95 8.98 339.68 14.52 398.85
  A 0.31 0.31 0.0 0 0 15.14 398.88
  C 24.26 349.86 46.98 303.37 76.19 263.07
  A 0.25 0.25 0.0 0 1 76.56 263.02
  C 114.34 294.90 158.26 321.71 204.97 337.15
  Q 205.44 337.31 205.11 336.94
  Q 200.66 331.94 193.90 325.13
  C 157.87 288.89 130.24 243.74 128.19 191.22
  C 128.13 189.71 128.68 187.84 129.47 186.71
  C 181.98 112.10 256.67 53.20 351.47 47.48
  C 402.38 44.41 453.71 55.20 499.72 74.26
  Q 576.97 106.28 642.08 161.35
  Q 642.46 161.67 642.12 161.30
  Q 620.40 137.53 593.56 114.45
  C 535.36 64.40 464.35 30.32 387.68 24.58
  C 300.10 18.03 211.08 46.99 139.60 97.74
  A 0.17 0.17 0.0 0 1 139.33 97.57
  Z
  M 236.81 242.44
  Q 228.15 242.24 224.99 242.45
  A 0.53 0.53 0.0 0 0 224.49 242.98
  L 224.49 339.87
  A 0.63 0.63 0.0 0 0 225.12 340.50
  L 256.75 340.50
  A 0.50 0.50 0.0 0 0 257.25 340.00
  L 257.25 310.73
  A 0.38 0.38 0.0 0 1 257.62 310.35
  Q 294.58 309.93 331.58 310.02
  C 343.47 310.05 356.61 312.38 363.05 299.76
  Q 364.57 296.77 364.85 291.95
  Q 365.59 279.04 365.18 266.11
  C 364.67 250.03 358.78 242.87 342.16 242.97
  Q 277.78 243.36 236.81 242.44
  Z
  M 451.45 279.11
  L 486.90 339.81
  A 1.39 1.38 -15.0 0 0 488.10 340.50
  L 525.92 340.50
  A 0.45 0.44 73.9 0 0 526.29 339.82
  L 466.49 242.69
  A 0.92 0.91 74.0 0 0 465.71 242.25
  L 432.54 242.25
  A 0.92 0.91 16.7 0 0 431.78 242.65
  Q 429.92 245.40 428.27 248.29
  Q 402.06 294.17 375.75 340.08
  A 0.28 0.28 0.0 0 0 376.00 340.50
  L 411.45 340.49
  A 1.56 1.56 0.0 0 0 412.77 339.76
  L 450.73 279.10
  A 0.42 0.42 0.0 0 1 451.45 279.11
  Z
  M 567.20 283.22
  L 567.37 242.72
  A 0.47 0.47 0.0 0 0 566.90 242.25
  L 538.76 242.25
  A 0.63 0.63 0.0 0 0 538.13 242.84
  Q 537.75 249.21 537.97 264.76
  Q 538.23 282.60 537.87 339.98
  A 0.52 0.51 90.0 0 0 538.38 340.50
  L 566.75 340.50
  A 0.50 0.50 0.0 0 0 567.25 340.00
  L 567.25 310.87
  A 1.27 1.26 -19.6 0 1 567.72 309.89
  L 590.25 291.93
  A 0.56 0.56 0.0 0 1 591.05 292.03
  L 627.87 340.03
  A 1.17 1.14 70.7 0 0 628.78 340.48
  L 668.43 340.51
  Q 669.29 340.51 668.74 339.85
  L 618.47 279.09
  A 0.95 0.94 53.0 0 1 618.66 277.72
  L 668.25 243.04
  A 0.43 0.43 0.0 0 0 668.01 242.25
  L 627.08 242.25
  A 1.76 1.73 -61.8 0 0 626.09 242.56
  L 567.81 283.54
  Q 567.20 283.97 567.20 283.22
  Z
  M 214.25 456.74
  C 293.20 457.37 375.37 478.57 456.75 481.73
  C 493.85 483.17 528.68 481.80 563.73 473.91
  C 611.45 463.17 656.62 439.53 689.78 403.25
  A 0.36 0.36 0.0 0 0 689.40 402.67
  C 633.21 421.83 573.80 433.37 514.50 434.50
  C 399.28 436.70 296.44 373.27 181.50 373.44
  C 123.28 373.53 65.21 387.03 15.29 416.42
  A 1.08 1.06 -21.2 0 0 14.78 417.55
  Q 24.53 465.83 47.15 509.53
  A 0.99 0.99 0.0 0 0 48.57 509.91
  C 97.55 477.95 155.42 456.27 214.25 456.74
  Z
  M 618.82 487.60
  C 644.77 471.71 669.19 450.75 688.16 426.91
  Q 689.58 425.11 690.09 423.28
  A 0.58 0.58 0.0 0 0 689.13 422.71
  C 649.24 460.93 590.16 481.08 536.74 489.75
  C 501.59 495.45 464.11 493.93 428.82 490.17
  C 375.97 484.54 323.68 475.16 270.82 469.68
  C 244.20 466.92 215.87 465.57 189.58 469.22
  C 141.82 475.84 93.28 491.76 54.20 520.80
  A 0.96 0.96 0.0 0 0 53.94 522.06
  Q 73.01 554.91 98.52 583.04
  A 0.50 0.50 0.0 0 0 99.24 583.05
  C 135.48 546.92 185.37 528.43 235.71 523.47
  Q 284.10 518.71 332.74 520.22
  C 354.22 520.89 375.84 521.39 397.26 523.07
  Q 431.62 525.77 466.07 526.47
  C 521.03 527.59 571.85 516.37 618.82 487.60
  Z
  M 683.15 448.36
  C 645.15 494.56 588.51 525.40 529.34 533.08
  C 493.60 537.71 460.83 538.08 423.43 537.33
  Q 418.53 537.23 410.58 536.73
  C 399.87 536.06 387.78 535.92 378.43 535.32
  C 322.85 531.73 267.77 528.82 212.55 538.32
  C 173.24 545.07 136.78 564.67 107.95 592.15
  A 0.56 0.55 -44.6 0 0 107.94 592.95
  Q 174.98 660.09 266.63 684.34
  C 271.85 685.72 278.52 687.07 283.00 687.75
  C 328.21 694.61 375.73 693.63 420.94 687.36
  C 437.62 685.05 453.21 680.99 468.77 675.30
  C 572.88 637.28 651.28 554.61 683.42 448.50
  A 0.16 0.15 -17.3 0 0 683.15 448.36
  Z"
/>
<path fill="#ebaa28" d="
  M 139.33 97.57
  A 0.17 0.17 0.0 0 0 139.60 97.74
  C 211.08 46.99 300.10 18.03 387.68 24.58
  C 464.35 30.32 535.36 64.40 593.56 114.45
  Q 620.40 137.53 642.12 161.30
  Q 642.46 161.67 642.08 161.35
  Q 576.97 106.28 499.72 74.26
  C 453.71 55.20 402.38 44.41 351.47 47.48
  C 256.67 53.20 181.98 112.10 129.47 186.71
  C 128.68 187.84 128.13 189.71 128.19 191.22
  C 130.24 243.74 157.87 288.89 193.90 325.13
  Q 200.66 331.94 205.11 336.94
  Q 205.44 337.31 204.97 337.15
  C 158.26 321.71 114.34 294.90 76.56 263.02
  A 0.25 0.25 0.0 0 0 76.19 263.07
  C 46.98 303.37 24.26 349.86 15.14 398.88
  A 0.31 0.31 0.0 0 1 14.52 398.85
  C 8.98 339.68 16.34 278.95 40.45 224.30
  A 1.36 1.36 0.0 0 0 40.47 223.25
  L 26.90 188.83
  A 1.01 1.00 -30.0 0 1 27.21 187.69
  Q 54.01 166.08 80.64 144.46
  Q 82.89 142.63 84.37 140.13
  C 105.08 105.24 126.02 69.54 149.96 36.77
  A 0.46 0.46 0.0 0 1 150.78 36.93
  Q 150.84 37.16 150.72 37.74
  Q 144.77 67.67 139.33 97.57
  Z"
/>
<path fill="#ebaa28" d="
  M 236.81 242.44
  Q 277.78 243.36 342.16 242.97
  C 358.78 242.87 364.67 250.03 365.18 266.11
  Q 365.59 279.04 364.85 291.95
  Q 364.57 296.77 363.05 299.76
  C 356.61 312.38 343.47 310.05 331.58 310.02
  Q 294.58 309.93 257.62 310.35
  A 0.38 0.38 0.0 0 0 257.25 310.73
  L 257.25 340.00
  A 0.50 0.50 0.0 0 1 256.75 340.50
  L 225.12 340.50
  A 0.63 0.63 0.0 0 1 224.49 339.87
  L 224.49 242.98
  A 0.53 0.53 0.0 0 1 224.99 242.45
  Q 228.15 242.24 236.81 242.44
  Z
  M 257.88 289.22
  C 279.74 289.29 301.57 289.65 323.43 289.40
  C 330.77 289.31 338.74 284.57 338.72 276.58
  C 338.71 270.80 333.98 265.69 328.57 264.29
  Q 326.35 263.71 319.87 263.62
  C 303.37 263.38 285.06 263.85 257.84 263.69
  A 0.62 0.61 -0.5 0 0 257.22 264.31
  L 257.32 288.66
  A 0.57 0.56 0.5 0 0 257.88 289.22
  Z"
/>
<path fill="#ebaa28" d="
  M 450.73 279.10
  L 412.77 339.76
  A 1.56 1.56 0.0 0 1 411.45 340.49
  L 376.00 340.50
  A 0.28 0.28 0.0 0 1 375.75 340.08
  Q 402.06 294.17 428.27 248.29
  Q 429.92 245.40 431.78 242.65
  A 0.92 0.91 16.7 0 1 432.54 242.25
  L 465.71 242.25
  A 0.92 0.91 74.0 0 1 466.49 242.69
  L 526.29 339.82
  A 0.45 0.44 73.9 0 1 525.92 340.50
  L 488.10 340.50
  A 1.39 1.38 -15.0 0 1 486.90 339.81
  L 451.45 279.11
  A 0.42 0.42 0.0 0 0 450.73 279.10
  Z"
/>
<path fill="#ebaa28" d="
  M 567.20 283.22
  Q 567.20 283.97 567.81 283.54
  L 626.09 242.56
  A 1.76 1.73 -61.8 0 1 627.08 242.25
  L 668.01 242.25
  A 0.43 0.43 0.0 0 1 668.25 243.04
  L 618.66 277.72
  A 0.95 0.94 53.0 0 0 618.47 279.09
  L 668.74 339.85
  Q 669.29 340.51 668.43 340.51
  L 628.78 340.48
  A 1.17 1.14 70.7 0 1 627.87 340.03
  L 591.05 292.03
  A 0.56 0.56 0.0 0 0 590.25 291.93
  L 567.72 309.89
  A 1.27 1.26 -19.6 0 0 567.25 310.87
  L 567.25 340.00
  A 0.50 0.50 0.0 0 1 566.75 340.50
  L 538.38 340.50
  A 0.52 0.51 -90.0 0 1 537.87 339.98
  Q 538.23 282.60 537.97 264.76
  Q 537.75 249.21 538.13 242.84
  A 0.63 0.63 0.0 0 1 538.76 242.25
  L 566.90 242.25
  A 0.47 0.47 0.0 0 1 567.37 242.72
  L 567.20 283.22
  Z"
/>
<path fill="#ffffff" d="
  M 323.43 289.40
  C 301.57 289.65 279.74 289.29 257.88 289.22
  A 0.57 0.56 0.5 0 1 257.32 288.66
  L 257.22 264.31
  A 0.62 0.61 -0.5 0 1 257.84 263.69
  C 285.06 263.85 303.37 263.38 319.87 263.62
  Q 326.35 263.71 328.57 264.29
  C 333.98 265.69 338.71 270.80 338.72 276.58
  C 338.74 284.57 330.77 289.31 323.43 289.40
  Z"
/>
<path fill="#0d9dd9" d="
  M 456.75 481.73
  C 375.37 478.57 293.20 457.37 214.25 456.74
  C 155.42 456.27 97.55 477.95 48.57 509.91
  A 0.99 0.99 0.0 0 1 47.15 509.53
  Q 24.53 465.83 14.78 417.55
  A 1.08 1.06 -21.2 0 1 15.29 416.42
  C 65.21 387.03 123.28 373.53 181.50 373.44
  C 296.44 373.27 399.28 436.70 514.50 434.50
  C 573.80 433.37 633.21 421.83 689.40 402.67
  A 0.36 0.36 0.0 0 1 689.78 403.25
  C 656.62 439.53 611.45 463.17 563.73 473.91
  C 528.68 481.80 493.85 483.17 456.75 481.73
  Z"
/>
<path fill="#005ca5" d="
  M 688.16 426.91
  C 669.19 450.75 644.77 471.71 618.82 487.60
  C 571.85 516.37 521.03 527.59 466.07 526.47
  Q 431.62 525.77 397.26 523.07
  C 375.84 521.39 354.22 520.89 332.74 520.22
  Q 284.10 518.71 235.71 523.47
  C 185.37 528.43 135.48 546.92 99.24 583.05
  A 0.50 0.50 0.0 0 1 98.52 583.04
  Q 73.01 554.91 53.94 522.06
  A 0.96 0.96 0.0 0 1 54.20 520.80
  C 93.28 491.76 141.82 475.84 189.58 469.22
  C 215.87 465.57 244.20 466.92 270.82 469.68
  C 323.68 475.16 375.97 484.54 428.82 490.17
  C 464.11 493.93 501.59 495.45 536.74 489.75
  C 590.16 481.08 649.24 460.93 689.13 422.71
  A 0.58 0.58 0.0 0 1 690.09 423.28
  Q 689.58 425.11 688.16 426.91
  Z"
/>
<path fill="#005ca5" d="
  M 529.34 533.08
  C 588.51 525.40 645.15 494.56 683.15 448.36
  A 0.16 0.15 -17.3 0 1 683.42 448.50
  C 651.28 554.61 572.88 637.28 468.77 675.30
  C 453.21 680.99 437.62 685.05 420.94 687.36
  C 375.73 693.63 328.21 694.61 283.00 687.75
  C 278.52 687.07 271.85 685.72 266.63 684.34
  Q 174.98 660.09 107.94 592.95
  A 0.56 0.55 -44.6 0 1 107.95 592.15
  C 136.78 564.67 173.24 545.07 212.55 538.32
  C 267.77 528.82 322.85 531.73 378.43 535.32
  C 387.78 535.92 399.87 536.06 410.58 536.73
  Q 418.53 537.23 423.43 537.33
  C 460.83 538.08 493.60 537.71 529.34 533.08
  Z"
/>
</svg>
