<?xml version="1.0" standalone="no"?>
<!DOCTYPE svg PUBLIC "-//W3C//DTD SVG 20010904//EN"
 "http://www.w3.org/TR/2001/REC-SVG-20010904/DTD/svg10.dtd">
<svg version="1.0" xmlns="http://www.w3.org/2000/svg"
 width="741.000000pt" height="741.000000pt" viewBox="0 0 741.000000 741.000000"
 preserveAspectRatio="xMidYMid meet">
<metadata>
Created by potrace 1.14, written by Peter Selinger 2001-2017
</metadata>
<g transform="translate(0.000000,741.000000) scale(0.100000,-0.100000)"
fill="#000000" stroke="none">
<path d="M3429 7356 c-2 -2 -42 -7 -89 -10 -47 -3 -96 -8 -110 -10 -14 -3 -50
-7 -80 -11 -80 -10 -97 -13 -210 -35 -30 -6 -66 -13 -80 -16 -14 -3 -33 -7
-42 -10 -9 -3 -26 -7 -37 -9 -41 -9 -58 -14 -178 -49 -68 -20 -147 -46 -175
-57 -29 -12 -57 -22 -63 -24 -5 -1 -22 -7 -37 -13 -16 -7 -40 -17 -55 -23
-126 -47 -397 -184 -524 -264 -60 -38 -182 -118 -194 -127 -5 -5 -50 -38 -100
-75 -49 -37 -92 -70 -95 -73 -3 -3 -34 -30 -70 -60 -144 -120 -314 -291 -425
-425 -28 -33 -52 -62 -56 -65 -3 -3 -18 -23 -35 -45 -16 -22 -33 -45 -39 -51
-5 -6 -17 -22 -25 -34 -8 -12 -35 -49 -59 -83 -80 -111 -197 -310 -274 -467
-158 -321 -249 -600 -321 -975 -3 -17 -14 -89 -31 -210 -30 -210 -27 -659 5
-900 17 -120 17 -126 35 -216 9 -46 19 -95 21 -109 11 -56 65 -253 75 -271 5
-10 7 -19 5 -19 -6 0 54 -169 104 -295 30 -75 169 -365 207 -430 514 -882
1339 -1504 2308 -1740 128 -31 163 -38 250 -51 17 -3 40 -7 53 -10 32 -7 162
-23 257 -32 104 -9 617 -9 720 0 138 13 347 45 475 72 99 21 342 88 385 106
11 5 65 25 120 45 111 41 124 46 315 139 196 94 261 132 450 259 72 49 223
160 246 182 6 5 33 28 60 50 139 116 318 295 429 430 22 26 45 53 50 59 6 6
23 29 39 51 17 22 33 42 36 45 3 3 22 28 41 55 18 28 36 52 39 55 13 12 122
184 180 285 170 294 317 670 386 985 21 96 35 162 39 185 1 11 7 49 13 85 6
36 13 88 16 115 3 28 9 77 13 110 9 85 9 555 0 645 -5 41 -10 89 -11 105 -6
49 -17 136 -22 159 -2 12 -6 37 -9 56 -3 19 -7 44 -9 55 -2 11 -12 54 -20 96
-20 94 -71 280 -92 334 -9 22 -16 42 -16 45 -1 15 -57 164 -101 270 -50 121
-178 366 -252 485 -67 108 -201 301 -236 340 -10 11 -45 53 -79 94 -243 295
-586 586 -939 795 -432 256 -959 432 -1441 482 -30 3 -68 8 -85 11 -35 6 -650
15 -656 9z"/>
</g>
</svg>
